<?xml version="1.0" encoding="UTF-8"?>
<svg id="Layer_1" data-name="Layer 1" xmlns="http://www.w3.org/2000/svg" viewBox="0 0 93.79 125.65">
  <path d="M54.87,59.24l-1.95,3.91-4.92,7.5c5.87-.18,7.96,6.1,10.72,10.14,5.5,8.08,14.09,14.54,23.19,18.06,1.38.53,2.92.86,4.26,1.37,1.41.53,2.15,1.57,1.59,3.09-.89,2.41-4.69.61-6.41,0-12.47-4.39-21-12.07-28.11-22.98-1.37-2.1-2.19-4.91-5.19-5.28-4.57-.56-7.22,3.52-10.3,6.07-7.59,6.29-17.18,10.75-26.79,12.9-1.53.34-5.73,1.36-7.04.94-1.79-.58-2.35-3.37-.47-4.22,1.34-.61,5.14-.89,6.88-1.25,11.22-2.32,19.77-7.2,28.13-14.84,6.22-5.69,12.18-14.32,14.53-22.5,1.39-4.83.21-11.01-6.02-10.55-5.89.44-6.13,5.73-8.07,10.05-5.8,12.93-20.34,24.26-34.75,25.25-1.56.11-3.57.09-3.95-1.83-.54-2.77,4.19-2.72,5.91-3.08,12.02-2.53,22.5-9.16,28.05-20.39,1.81-3.67,2.18-7.69,4.92-10.86,6.14-7.1,17.52-3.76,18.88,5.48.29,1.96.06,3.84.17,5.77,1.05,18.4,10.58,32.45,27.89,38.98,1.82.69,5.42.99,5.24,3.51-.26,3.59-6.45.75-8.28,0-8.7-3.55-15.26-8.52-20.66-16.21-3.9-5.55-7.03-12.15-7.47-19.02Z"/>
  <path d="M93.1,68.4c-1.41,1.32-4.27-.73-5.49-1.67-4.36-3.36-6.35-8.02-7.09-13.38-.55-4.01-.04-7.95-.72-11.94-2.5-14.78-15.79-26.53-30.78-27.35-12.51-.68-24.86,6.23-30.79,17.19-2.28,4.22-2.98,9-6.17,12.73-1.98,2.32-5.54,4.95-8.67,5.24-2.1.19-4.13-1.01-2.77-3.23.61-.99,1.71-.96,2.69-1.38,8.1-3.48,7.07-7.8,10.44-14.71,7.26-14.86,24.96-23.18,41.13-19.82,15.05,3.12,27.55,16.66,29.5,31.9.97,7.59-1.23,15.36,5.57,20.99.74.61,3.01,1.72,3.33,2.13.67.86.59,2.55-.19,3.29Z"/>
  <path d="M45,.06c13.62-.75,28.27,5.43,37.06,15.82,4.53,5.36,8.56,12.71,10.11,19.57,1.45,6.4,1.36,12.05,1.45,18.55,0,.66.22,1.27.17,2.03-.16,2.32-1.96,2.95-3.29.94-2.1-3.19-1.16-9.25-1.4-12.97-1.56-23.89-22.99-41.75-46.78-38.97-13.87,1.62-26.83,10.69-32.73,23.36-1.2,2.57-1.97,5.77-3.23,8.18-1.12,2.15-4.05,1.92-4.3-.38-.17-1.57,2.05-6.64,2.79-8.31C11.92,11.87,27.42,1.03,45,.06Z"/>
  <path d="M26.96,27.1c17.61-17.86,47.67-5.92,48.86,18.92.39,8.24,0,14.57,5.78,21.25,3.57,4.13,6.02,4.5,10.41,6.93,2.68,1.48,1.9,4.77-1.39,4.04-4.62-1.03-10.7-5.72-13.47-9.5-5.53-7.55-5.18-14.03-5.72-22.88-.92-15-14.95-25.09-29.54-22.19-5.66,1.12-12.08,5.77-15.12,10.66-2.33,3.76-3.08,8.36-5.32,12.18-3.11,5.32-8.87,9.58-14.75,11.34-1.74.52-5.12,1.66-6.28-.21-1.81-2.91,4.25-3.75,5.93-4.37,4.44-1.62,8.1-4.4,10.73-8.33s3.15-8.18,5.41-12.09c1.13-1.96,2.87-4.17,4.46-5.78Z"/>
  <path d="M44.69,27.88c7.23-.64,13.42,1.76,18,7.38,5.55,6.81,3.63,13.28,4.89,21.2,2.05,12.8,9.11,21.36,21.28,25.75,1.68.61,5.66,1.06,3.97,3.96-1.33,2.27-4.83.59-6.69-.14-13.34-5.23-21.33-16.18-23.11-30.33-.98-7.79.79-13.68-5.73-19.59-4.82-4.36-11.17-4.79-17-2.17-7.55,3.39-7.36,10.65-10.91,16.9-4.43,7.82-12.39,13.63-21.03,16-1.95.54-7.68,2.03-8.28-.85-.63-3.02,3.35-2.68,5.3-3.06,8.54-1.66,16.75-7.44,20.68-15.26,1.98-3.94,2.59-8.31,5.26-11.93,3.1-4.21,8.07-7.4,13.38-7.87Z"/>
  <path d="M46.12,85.64h-.23c-9.16,8.45-20.72,14.25-32.89,16.95-1.43.32-4.76,1.18-6,.69-1.78-.72-2.4-3.06-.33-3.89,11.27-2.08,21.77-5.73,31.01-12.59,2.26-1.68,4.69-4.35,6.9-5.75,1.87-1.18,2.84-.91,4.2.77,1.51,1.86,2.83,4.23,4.31,6.15,5.84,7.6,13.91,13.98,22.62,18.01,1.56.72,3.44,1.24,4.9,1.97,3,1.5,1.01,4.76-2.17,3.89s-8.5-3.87-11.42-5.61c-8.64-5.15-15.26-12.34-20.89-20.59Z"/>
  <path d="M43.43,93.96c4.2-.57,6.5,4.17,9.1,6.76,4.83,4.82,10.74,8.85,16.82,11.93,1.06.54,3.78,1.44,4.51,2.05s.96,1.91.31,2.65c-.23.27-1.57.81-1.94.88-.97.17-2.9-.87-3.86-1.31-7.95-3.63-14.66-8.66-20.68-14.95-.89-.93-2.22-3.12-3.51-3.21s-3.29,1.7-4.46,2.41c-7.53,4.59-14.88,7.77-23.58,9.55-1.61.33-4.49,1.4-5.19-.75-.39-1.17-.09-2.12,1.02-2.64,2.13-1,6.4-1.48,8.98-2.27,4.38-1.36,9.1-3.43,13.11-5.64,2.59-1.43,5.48-3.79,7.97-5,.4-.2.98-.4,1.42-.46Z"/>
  <path d="M47.02,45.83c1.44-.28,2.24,1.47,2.21,2.68-.05,2.11-2.71,7.95-3.81,9.95-7.3,13.18-19.44,22.31-33.99,26.17-2.25.6-6.59,1.52-8.83,1.33-2.46-.21-2.87-3.21-.92-4.05,1.53-.66,4.85-.8,6.65-1.16,14.09-2.78,27.6-12.45,33.91-25.47,1.19-2.45,1.84-5.46,3.04-7.74.36-.68.92-1.55,1.74-1.71Z"/>
  <path d="M42.03,106c4.29-.35,8.29,4.59,11.45,7.05s6.78,4.08,9.66,6.27c1.25.95,1.99,2,.79,3.43-1.32,1.57-3.24.34-4.58-.42-3.87-2.2-7.79-5.17-11.2-8.01-1.8-1.5-3.61-4.07-6.15-3.81-1.85.18-7.07,3.3-9.21,4.23-2.65,1.16-5.68,2.31-8.46,3.1-1.08.31-2.97.96-4.03.74-1.83-.38-2.16-3.14-.54-4.06,1.26-.71,4.7-1.27,6.32-1.8,2.03-.65,4.25-1.53,6.19-2.41,2.81-1.27,6.8-4.07,9.76-4.31Z"/>
  <path d="M40.46,116.31c2.41-.33,4.44,1.23,6.27,2.55.89.65,3.57,2.63,4.08,3.42.96,1.47-.25,3.33-1.96,3.37-1.29.02-4.26-3.02-5.49-3.89-1.5-1.05-1.73-1.2-3.53-.61-2.46.8-4.96,2.36-7.46,3.18-1.68.29-3.66-2.58-2.12-3.85,2.57-1.09,5.13-2.35,7.74-3.35.74-.29,1.68-.72,2.46-.82Z"/>
</svg>