<?xml version="1.0" encoding="UTF-8"?>
<svg id="Layer_1" data-name="Layer 1" xmlns="http://www.w3.org/2000/svg" viewBox="0 0 74.71 88.14">
  <path d="M58.48,57.19c2.7,3.53,7.06,4.26,11.06,2.52.83-.36,2.02-1.41,2.74-1.49,1.29-.14,2.18.49,2.27,1.8l-.08,26.66c-.21.69-1.37,1.16-2.04,1.24h-27.81c-1.28.06-2.55-.76-2.58-2.12-.03-.97,1.58-2.54,2.06-3.56,1.78-3.78.27-8.13-3.16-10.32-7.01-4.47-16.53,2.02-13.14,10.17.95,2.27,4.06,4.88-.52,5.83-8.12-.54-17.15.71-25.16,0-1.34-.11-1.99-.76-2.11-2.11V19.71c-.14-.76.95-2.26,1.64-2.26h33.99C31.8,9.64,36.89,1.28,45.27.12c7.57-1.05,14.53,5.13,13.96,12.87-.12,1.59-.74,2.94-1.09,4.46h15.08c.58,0,1.58,1.3,1.48,1.95l-.12,24.41c-1.37,2.88-3.98.18-5.89-.43-8.49-2.7-15.64,6.73-10.21,13.81Z"/>
</svg>